<?xml version="1.0" encoding="UTF-8" standalone="no"?>
<!DOCTYPE svg PUBLIC "-//W3C//DTD SVG 1.1//EN"
 "http://www.w3.org/Graphics/SVG/1.1/DTD/svg11.dtd">
<!-- Generated by graphviz version 9.0.0 (20230911.1827)
 -->
<!-- Title: odio_network Pages: 1 -->
<svg width="1284pt" height="590pt"
 viewBox="0.00 0.00 1284.00 589.50" xmlns="http://www.w3.org/2000/svg" xmlns:xlink="http://www.w3.org/1999/xlink">
<g id="graph0" class="graph" transform="scale(1 1) rotate(0) translate(4 585.5)">
<title>odio_network</title>
<g id="clust1" class="cluster">
<title>cluster_desktop</title>
<polygon fill="#111d14" stroke="#4a7c59" stroke-width="1.5" points="484,-500 484,-573.5 916,-573.5 916,-500 484,-500"/>
<text text-anchor="middle" x="700" y="-559.05" font-family="monospace" font-size="11.00" fill="#e8f0ea">Mac / PC / Linux</text>
</g>
<g id="clust2" class="cluster">
<title>cluster_phone</title>
<polygon fill="#111d14" stroke="#4a7c59" stroke-width="1.5" points="8,-377 8,-573.5 476,-573.5 476,-377 8,-377"/>
<text text-anchor="middle" x="242" y="-559.05" font-family="monospace" font-size="11.00" fill="#e8f0ea">Phone / Tablet</text>
</g>
<g id="clust3" class="cluster">
<title>cluster_nas</title>
<polygon fill="#111d14" stroke="#4a7c59" stroke-width="1.5" points="924,-500 924,-573.5 1268,-573.5 1268,-500 924,-500"/>
<text text-anchor="middle" x="1096" y="-559.05" font-family="monospace" font-size="11.00" fill="#e8f0ea">NAS</text>
</g>
<g id="clust4" class="cluster">
<title>cluster_odio</title>
<polygon fill="#0d1a10" stroke="#7ab896" stroke-width="2" points="419,-8 419,-330.5 955,-330.5 955,-8 419,-8"/>
<text text-anchor="middle" x="687" y="-314.15" font-family="monospace" font-size="13.00" fill="#7ab896">odios</text>
</g>
<!-- d_airplay -->
<g id="node1" class="node">
<title>d_airplay</title>
<polygon fill="#152018" stroke="#2a4030" stroke-width="0.8" points="624,-544 570,-544 570,-508 624,-508 624,-544"/>
<text text-anchor="middle" x="597" y="-523.08" font-family="monospace" font-size="9.00" fill="#e8f0ea">AirPlay</text>
</g>
<!-- shairport -->
<g id="node18" class="node">
<title>shairport</title>
<polygon fill="#152018" stroke="#2a4030" stroke-width="0.8" points="617,-298 517,-298 517,-262 617,-262 617,-298"/>
<text text-anchor="middle" x="567" y="-276.88" font-family="monospace" font-size="10.00" fill="#e8f0ea">Shairport Sync</text>
</g>
<!-- d_airplay&#45;&gt;shairport -->
<g id="edge1" class="edge">
<title>d_airplay&#45;&gt;shairport</title>
<path fill="none" stroke="#4a7c59" d="M594.94,-508.23C589.74,-465.92 576.06,-354.69 569.98,-305.27"/>
<polygon fill="#4a7c59" stroke="#4a7c59" points="572.08,-305.09 569.26,-299.39 567.91,-305.6 572.08,-305.09"/>
</g>
<!-- d_spotify -->
<g id="node2" class="node">
<title>d_spotify</title>
<polygon fill="#152018" stroke="#2a4030" stroke-width="0.8" points="732.38,-544 637.62,-544 637.62,-508 732.38,-508 732.38,-544"/>
<text text-anchor="middle" x="685" y="-523.08" font-family="monospace" font-size="9.00" fill="#e8f0ea">Spotify Connect</text>
</g>
<!-- spotifyd -->
<g id="node19" class="node">
<title>spotifyd</title>
<polygon fill="#152018" stroke="#2a4030" stroke-width="0.8" points="695,-298 631,-298 631,-262 695,-262 695,-298"/>
<text text-anchor="middle" x="663" y="-276.88" font-family="monospace" font-size="10.00" fill="#e8f0ea">spotifyd</text>
</g>
<!-- d_spotify&#45;&gt;spotifyd -->
<g id="edge2" class="edge">
<title>d_spotify&#45;&gt;spotifyd</title>
<path fill="none" stroke="#4a7c59" d="M683.49,-508.23C679.67,-465.92 669.64,-354.69 665.19,-305.27"/>
<polygon fill="#4a7c59" stroke="#4a7c59" points="667.29,-305.18 664.66,-299.4 663.11,-305.56 667.29,-305.18"/>
</g>
<!-- d_bt -->
<g id="node3" class="node">
<title>d_bt</title>
<polygon fill="#152018" stroke="#2a4030" stroke-width="0.8" points="555.62,-544 492.38,-544 492.38,-508 555.62,-508 555.62,-544"/>
<text text-anchor="middle" x="524" y="-523.08" font-family="monospace" font-size="9.00" fill="#e8f0ea">Bluetooth</text>
</g>
<!-- bluez_a2dp -->
<g id="node20" class="node">
<title>bluez_a2dp</title>
<polygon fill="#152018" stroke="#2a4030" stroke-width="0.8" points="503,-298 427,-298 427,-262 503,-262 503,-298"/>
<text text-anchor="middle" x="465" y="-276.88" font-family="monospace" font-size="10.00" fill="#e8f0ea">BlueZ A2DP</text>
</g>
<!-- d_bt&#45;&gt;bluez_a2dp -->
<g id="edge3" class="edge">
<title>d_bt&#45;&gt;bluez_a2dp</title>
<path fill="none" stroke="#4a7c59" d="M520.58,-508.13C518.05,-495.87 514.45,-478.87 511,-464 497.65,-406.5 480.31,-339.29 471.2,-304.52"/>
<polygon fill="#4a7c59" stroke="#4a7c59" points="473.33,-304.34 469.77,-299.07 469.26,-305.4 473.33,-304.34"/>
</g>
<!-- d_tcp -->
<g id="node4" class="node">
<title>d_tcp</title>
<polygon fill="#152018" stroke="#2a4030" stroke-width="0.8" points="907.75,-544 818.25,-544 818.25,-508 907.75,-508 907.75,-544"/>
<text text-anchor="middle" x="863" y="-523.08" font-family="monospace" font-size="9.00" fill="#e8f0ea">PulseAudio TCP</text>
</g>
<!-- pulse -->
<g id="node24" class="node">
<title>pulse</title>
<polygon fill="#152018" stroke="#7ab896" stroke-width="0.8" points="736,-52 660,-52 660,-16 736,-16 736,-52"/>
<text text-anchor="middle" x="698" y="-30.88" font-family="monospace" font-size="10.00" fill="#7ab896">PulseAudio</text>
</g>
<!-- d_tcp&#45;&gt;pulse -->
<g id="edge4" class="edge">
<title>d_tcp&#45;&gt;pulse</title>
<path fill="none" stroke="#4a7c59" d="M903.8,-508.2C922.8,-498.34 944.02,-484.03 957,-465 972.57,-442.17 969,-431.63 969,-404 969,-404 969,-404 969,-156 969,-58.29 820.3,-38.94 743.2,-35.48"/>
<polygon fill="#4a7c59" stroke="#4a7c59" points="743.56,-33.39 737.48,-35.25 743.39,-37.59 743.56,-33.39"/>
</g>
<!-- d_pwa -->
<g id="node5" class="node">
<title>d_pwa</title>
<polygon fill="#1a2e1e" stroke="#7ab896" stroke-width="0.8" points="804,-544 746,-544 746,-508 804,-508 804,-544"/>
<text text-anchor="middle" x="775" y="-523.08" font-family="monospace" font-size="9.00" fill="#7ab896">odio&#45;pwa</text>
</g>
<!-- api -->
<g id="node17" class="node">
<title>api</title>
<polygon fill="#152018" stroke="#7ab896" stroke-width="0.8" points="869,-298 787,-298 787,-262 869,-262 869,-298"/>
<text text-anchor="middle" x="828" y="-283.25" font-family="monospace" font-size="10.00" fill="#7ab896">go&#45;odio&#45;api</text>
<text text-anchor="middle" x="828" y="-270.5" font-family="monospace" font-size="10.00" fill="#7ab896">REST + SSE</text>
</g>
<!-- d_pwa&#45;&gt;api -->
<g id="edge14" class="edge">
<title>d_pwa&#45;&gt;api</title>
<path fill="none" stroke="#7ab896" stroke-dasharray="5,2" d="M778.64,-508.23C787.85,-465.83 812.09,-354.24 822.79,-304.97"/>
<polygon fill="#7ab896" stroke="#7ab896" points="824.79,-305.68 824.01,-299.37 820.68,-304.79 824.79,-305.68"/>
<text text-anchor="middle" x="827" y="-400.07" font-family="monospace" font-size="9.00" fill="#7ab896">HTTP+SSE</text>
</g>
<!-- p_airplay -->
<g id="node6" class="node">
<title>p_airplay</title>
<polygon fill="#152018" stroke="#2a4030" stroke-width="0.8" points="148,-544 94,-544 94,-508 148,-508 148,-544"/>
<text text-anchor="middle" x="121" y="-523.08" font-family="monospace" font-size="9.00" fill="#e8f0ea">AirPlay</text>
</g>
<!-- p_airplay&#45;&gt;shairport -->
<g id="edge5" class="edge">
<title>p_airplay&#45;&gt;shairport</title>
<path fill="none" stroke="#4a7c59" d="M140.46,-508.04C144.97,-504.88 149.95,-501.96 155,-500 290.41,-447.38 361.61,-549.2 480,-465 507.89,-445.16 543.39,-349.99 559.01,-304.85"/>
<polygon fill="#4a7c59" stroke="#4a7c59" points="560.98,-305.59 560.94,-299.23 557,-304.23 560.98,-305.59"/>
</g>
<!-- p_spotify -->
<g id="node7" class="node">
<title>p_spotify</title>
<polygon fill="#152018" stroke="#2a4030" stroke-width="0.8" points="256.38,-544 161.62,-544 161.62,-508 256.38,-508 256.38,-544"/>
<text text-anchor="middle" x="209" y="-523.08" font-family="monospace" font-size="9.00" fill="#e8f0ea">Spotify Connect</text>
</g>
<!-- p_spotify&#45;&gt;spotifyd -->
<g id="edge6" class="edge">
<title>p_spotify&#45;&gt;spotifyd</title>
<path fill="none" stroke="#4a7c59" d="M241.21,-508.11C248.24,-504.99 255.75,-502.07 263,-500 385.72,-464.99 440.37,-533.57 548,-465 607.82,-426.89 641.85,-345.31 655.67,-304.81"/>
<polygon fill="#4a7c59" stroke="#4a7c59" points="657.64,-305.54 657.54,-299.19 653.66,-304.22 657.64,-305.54"/>
</g>
<!-- p_bt -->
<g id="node8" class="node">
<title>p_bt</title>
<polygon fill="#152018" stroke="#2a4030" stroke-width="0.8" points="79.62,-544 16.38,-544 16.38,-508 79.62,-508 79.62,-544"/>
<text text-anchor="middle" x="48" y="-523.08" font-family="monospace" font-size="9.00" fill="#e8f0ea">Bluetooth</text>
</g>
<!-- p_bt&#45;&gt;bluez_a2dp -->
<g id="edge7" class="edge">
<title>p_bt&#45;&gt;bluez_a2dp</title>
<path fill="none" stroke="#4a7c59" d="M70.58,-508.01C75.74,-504.86 81.38,-501.95 87,-500 163.16,-473.63 391.14,-522.12 448,-465 490.29,-422.51 479.9,-344.01 471.2,-304.71"/>
<polygon fill="#4a7c59" stroke="#4a7c59" points="473.35,-304.69 469.95,-299.32 469.26,-305.64 473.35,-304.69"/>
</g>
<!-- p_upnp -->
<g id="node9" class="node">
<title>p_upnp</title>
<polygon fill="#152018" stroke="#2a4030" stroke-width="0.8" points="468,-544 414,-544 414,-508 468,-508 468,-544"/>
<text text-anchor="middle" x="441" y="-523.08" font-family="monospace" font-size="9.00" fill="#e8f0ea">UPnP</text>
</g>
<!-- upmpdcli -->
<g id="node21" class="node">
<title>upmpdcli</title>
<polygon fill="#152018" stroke="#2a4030" stroke-width="0.8" points="947,-298 883,-298 883,-262 947,-262 947,-298"/>
<text text-anchor="middle" x="915" y="-276.88" font-family="monospace" font-size="10.00" fill="#e8f0ea">upmpdcli</text>
</g>
<!-- p_upnp&#45;&gt;upmpdcli -->
<g id="edge8" class="edge">
<title>p_upnp&#45;&gt;upmpdcli</title>
<path fill="none" stroke="#4a7c59" d="M463.77,-508.26C469.18,-505 475.1,-501.99 481,-500 560.5,-473.15 791.7,-517.71 857,-465 905.74,-425.65 914.22,-345.59 915.25,-305.3"/>
<polygon fill="#4a7c59" stroke="#4a7c59" points="917.35,-305.34 915.35,-299.31 913.15,-305.28 917.35,-305.34"/>
</g>
<!-- p_snap -->
<g id="node10" class="node">
<title>p_snap</title>
<polygon fill="#152018" stroke="#2a4030" stroke-width="0.8" points="328,-544 270,-544 270,-508 328,-508 328,-544"/>
<text text-anchor="middle" x="299" y="-523.08" font-family="monospace" font-size="9.00" fill="#e8f0ea">Snapcast</text>
</g>
<!-- snapcast -->
<g id="node22" class="node">
<title>snapcast</title>
<polygon fill="#152018" stroke="#2a4030" stroke-width="0.8" points="773,-298 709,-298 709,-262 773,-262 773,-298"/>
<text text-anchor="middle" x="741" y="-276.88" font-family="monospace" font-size="10.00" fill="#e8f0ea">Snapcast</text>
</g>
<!-- p_snap&#45;&gt;snapcast -->
<g id="edge9" class="edge">
<title>p_snap&#45;&gt;snapcast</title>
<path fill="none" stroke="#4a7c59" d="M319.74,-508.1C324.51,-504.94 329.74,-502.01 335,-500 455.07,-454.23 513.06,-533.15 622,-465 653.37,-445.38 705.77,-349.34 729.13,-304.35"/>
<polygon fill="#4a7c59" stroke="#4a7c59" points="730.91,-305.48 731.8,-299.18 727.18,-303.55 730.91,-305.48"/>
</g>
<!-- p_malp -->
<g id="node11" class="node">
<title>p_malp</title>
<polygon fill="#152018" stroke="#2a4030" stroke-width="0.8" points="434,-421 376,-421 376,-385 434,-385 434,-421"/>
<text text-anchor="middle" x="405" y="-400.07" font-family="monospace" font-size="9.00" fill="#e8f0ea">M.A.L.P.</text>
</g>
<!-- mpd -->
<g id="node23" class="node">
<title>mpd</title>
<polygon fill="#152018" stroke="#2a4030" stroke-width="0.8" points="683,-175 629,-175 629,-139 683,-139 683,-175"/>
<text text-anchor="middle" x="656" y="-153.88" font-family="monospace" font-size="10.00" fill="#e8f0ea">MPD</text>
</g>
<!-- p_malp&#45;&gt;mpd -->
<g id="edge10" class="edge">
<title>p_malp&#45;&gt;mpd</title>
<path fill="none" stroke="#4a7c59" d="M401.8,-385.01C397.45,-356.59 393.02,-298.9 420,-262 468.58,-195.54 569.1,-170.9 621.91,-162.29"/>
<polygon fill="#4a7c59" stroke="#4a7c59" points="621.93,-164.41 627.54,-161.41 621.28,-160.26 621.93,-164.41"/>
</g>
<!-- p_pwa -->
<g id="node12" class="node">
<title>p_pwa</title>
<polygon fill="#1a2e1e" stroke="#7ab896" stroke-width="0.8" points="400,-544 342,-544 342,-508 400,-508 400,-544"/>
<text text-anchor="middle" x="371" y="-523.08" font-family="monospace" font-size="9.00" fill="#7ab896">odio&#45;pwa</text>
</g>
<!-- p_pwa&#45;&gt;api -->
<g id="edge15" class="edge">
<title>p_pwa&#45;&gt;api</title>
<path fill="none" stroke="#7ab896" stroke-dasharray="5,2" d="M391.73,-508.07C396.5,-504.92 401.73,-501.99 407,-500 533.82,-452.12 594.98,-536.75 710,-465 770.62,-427.18 805.9,-345.46 820.32,-304.87"/>
<polygon fill="#7ab896" stroke="#7ab896" points="822.3,-305.58 822.28,-299.23 818.33,-304.21 822.3,-305.58"/>
</g>
<!-- n_snap -->
<g id="node13" class="node">
<title>n_snap</title>
<polygon fill="#152018" stroke="#2a4030" stroke-width="0.8" points="990,-544 932,-544 932,-508 990,-508 990,-544"/>
<text text-anchor="middle" x="961" y="-523.08" font-family="monospace" font-size="9.00" fill="#e8f0ea">Snapcast</text>
</g>
<!-- n_snap&#45;&gt;snapcast -->
<g id="edge11" class="edge">
<title>n_snap&#45;&gt;snapcast</title>
<path fill="none" stroke="#4a7c59" d="M940.13,-508.09C926.42,-496.56 908.41,-480.6 894,-465 860.65,-428.89 859.44,-413.93 827,-377 807.61,-354.92 799.57,-352.42 780,-330.5 772.42,-322.01 764.56,-312.25 757.9,-303.65"/>
<polygon fill="#4a7c59" stroke="#4a7c59" points="759.74,-302.6 754.42,-299.12 756.41,-305.16 759.74,-302.6"/>
</g>
<!-- n_mpd -->
<g id="node14" class="node">
<title>n_mpd</title>
<polygon fill="#152018" stroke="#2a4030" stroke-width="0.8" points="1260,-544 1206,-544 1206,-508 1260,-508 1260,-544"/>
<text text-anchor="middle" x="1233" y="-523.08" font-family="monospace" font-size="9.00" fill="#e8f0ea">MPD</text>
</g>
<!-- n_mpd&#45;&gt;pulse -->
<g id="edge12" class="edge">
<title>n_mpd&#45;&gt;pulse</title>
<path fill="none" stroke="#4a7c59" d="M1216.93,-508.1C1197.68,-486.01 1168,-445.25 1168,-404 1168,-404 1168,-404 1168,-156 1168,-68.81 860.83,-43.51 743.14,-37.02"/>
<polygon fill="#4a7c59" stroke="#4a7c59" points="743.28,-34.93 737.18,-36.7 743.06,-39.12 743.28,-34.93"/>
</g>
<!-- n_upnp -->
<g id="node15" class="node">
<title>n_upnp</title>
<polygon fill="#152018" stroke="#2a4030" stroke-width="0.8" points="1192.12,-544 1107.88,-544 1107.88,-508 1192.12,-508 1192.12,-544"/>
<text text-anchor="middle" x="1150" y="-523.08" font-family="monospace" font-size="9.00" fill="#e8f0ea">UPnP/minidlna</text>
</g>
<!-- n_upnp&#45;&gt;upmpdcli -->
<g id="edge13" class="edge">
<title>n_upnp&#45;&gt;upmpdcli</title>
<path fill="none" stroke="#4a7c59" d="M1133.85,-508.23C1092.51,-465.31 982.88,-351.48 936.36,-303.17"/>
<polygon fill="#4a7c59" stroke="#4a7c59" points="937.99,-301.84 932.32,-298.98 934.97,-304.76 937.99,-301.84"/>
</g>
<!-- n_ha -->
<g id="node16" class="node">
<title>n_ha</title>
<polygon fill="#1a2e1e" stroke="#7ab896" stroke-width="0.8" points="1093.75,-544 1004.25,-544 1004.25,-508 1093.75,-508 1093.75,-544"/>
<text text-anchor="middle" x="1049" y="-523.08" font-family="monospace" font-size="9.00" fill="#7ab896">Home Assistant</text>
</g>
<!-- n_ha&#45;&gt;api -->
<g id="edge16" class="edge">
<title>n_ha&#45;&gt;api</title>
<path fill="none" stroke="#7ab896" stroke-dasharray="5,2" d="M1033.81,-508.23C994.93,-465.31 891.83,-351.48 848.08,-303.17"/>
<polygon fill="#7ab896" stroke="#7ab896" points="849.9,-302.05 844.31,-299.01 846.78,-304.87 849.9,-302.05"/>
<text text-anchor="middle" x="975" y="-400.07" font-family="monospace" font-size="9.00" fill="#7ab896">HTTP+SSE</text>
</g>
<!-- shairport&#45;&gt;pulse -->
<g id="edge17" class="edge">
<title>shairport&#45;&gt;pulse</title>
<path fill="none" stroke="#4a7c59" d="M571.97,-262.44C580.37,-235.59 598.72,-181.33 622,-139 638.47,-109.04 662.38,-77.76 678.97,-57.44"/>
<polygon fill="#4a7c59" stroke="#4a7c59" points="680.5,-58.88 682.69,-52.92 677.25,-56.21 680.5,-58.88"/>
</g>
<!-- spotifyd&#45;&gt;pulse -->
<g id="edge18" class="edge">
<title>spotifyd&#45;&gt;pulse</title>
<path fill="none" stroke="#4a7c59" d="M668.43,-262.28C674.79,-241.91 685.09,-206.33 690,-175 696.31,-134.77 697.79,-87.34 698.06,-59.3"/>
<polygon fill="#4a7c59" stroke="#4a7c59" points="700.16,-59.45 698.09,-53.44 695.96,-59.42 700.16,-59.45"/>
</g>
<!-- bluez_a2dp&#45;&gt;pulse -->
<g id="edge19" class="edge">
<title>bluez_a2dp&#45;&gt;pulse</title>
<path fill="none" stroke="#4a7c59" d="M481.02,-262.23C522,-219.31 630.7,-105.48 676.83,-57.17"/>
<polygon fill="#4a7c59" stroke="#4a7c59" points="678.2,-58.77 680.83,-52.98 675.17,-55.87 678.2,-58.77"/>
</g>
<!-- upmpdcli&#45;&gt;mpd -->
<g id="edge22" class="edge">
<title>upmpdcli&#45;&gt;mpd</title>
<path fill="none" stroke="#4a7c59" d="M883.24,-264.16C834.09,-241.2 740.02,-197.25 689.71,-173.75"/>
<polygon fill="#4a7c59" stroke="#4a7c59" points="690.6,-171.85 684.28,-171.21 688.83,-175.65 690.6,-171.85"/>
</g>
<!-- snapcast&#45;&gt;pulse -->
<g id="edge20" class="edge">
<title>snapcast&#45;&gt;pulse</title>
<path fill="none" stroke="#4a7c59" d="M738.04,-262.23C730.59,-219.92 710.99,-108.69 702.28,-59.27"/>
<polygon fill="#4a7c59" stroke="#4a7c59" points="704.35,-58.92 701.24,-53.38 700.21,-59.65 704.35,-58.92"/>
</g>
<!-- mpd&#45;&gt;pulse -->
<g id="edge21" class="edge">
<title>mpd&#45;&gt;pulse</title>
<path fill="none" stroke="#4a7c59" d="M661.84,-139.18C669.11,-118.23 681.58,-82.31 689.8,-58.61"/>
<polygon fill="#4a7c59" stroke="#4a7c59" points="691.73,-59.47 691.71,-53.11 687.76,-58.09 691.73,-59.47"/>
</g>
</g>
</svg>
