<?xml version="1.0" encoding="UTF-8" standalone="no"?>
<!DOCTYPE svg PUBLIC "-//W3C//DTD SVG 1.1//EN"
 "http://www.w3.org/Graphics/SVG/1.1/DTD/svg11.dtd">
<!-- Generated by graphviz version 14.1.3 (20260303.0454)
 -->
<!-- Title: odio Pages: 1 -->
<svg width="646pt" height="457pt"
 viewBox="0.00 0.00 646.00 457.00" xmlns="http://www.w3.org/2000/svg" xmlns:xlink="http://www.w3.org/1999/xlink">
<g id="graph0" class="graph" transform="scale(1 1) rotate(0) translate(4 453.25)">
<title>odio</title>
<g id="clust1" class="cluster">
<title>cluster_clients</title>
</g>
<g id="clust2" class="cluster">
<title>cluster_session</title>
<polygon fill="#0d1a10" stroke="#2a4030" stroke-width="2" points="8,-8 8,-360 630,-360 630,-8 8,-8"/>
<text xml:space="preserve" text-anchor="middle" x="319" y="-345.55" font-family="monospace" font-size="11.00" fill="#8aab92">systemd user session</text>
</g>
<g id="clust3" class="cluster">
<title>cluster_dbus_session</title>
<polygon fill="#152018" stroke="#2a4030" stroke-width="2" points="414,-81 414,-154.5 518,-154.5 518,-81 414,-81"/>
<text xml:space="preserve" text-anchor="middle" x="466" y="-140.05" font-family="monospace" font-size="11.00" fill="#8aab92">D&#45;Bus session</text>
</g>
<g id="clust4" class="cluster">
<title>cluster_dbus_system</title>
<polygon fill="#152018" stroke="#2a4030" stroke-width="2" points="16,-81 16,-154.5 160,-154.5 160,-81 16,-81"/>
<text xml:space="preserve" text-anchor="middle" x="88" y="-140.05" font-family="monospace" font-size="11.00" fill="#8aab92">D&#45;Bus system</text>
</g>
<g id="clust5" class="cluster">
<title>cluster_sources</title>
<polygon fill="#152018" stroke="#2a4030" stroke-width="2" points="88,-183.75 88,-257.25 610,-257.25 610,-183.75 88,-183.75"/>
<text xml:space="preserve" text-anchor="middle" x="349" y="-242.8" font-family="monospace" font-size="11.00" fill="#8aab92">Audio Sources</text>
</g>
<!-- pwa -->
<g id="node1" class="node">
<title>pwa</title>
<polygon fill="#152018" stroke="#2a4030" stroke-width="0.8" points="125,-433.25 55,-433.25 55,-397.25 125,-397.25 125,-433.25"/>
<text xml:space="preserve" text-anchor="middle" x="90" y="-411.55" font-family="monospace" font-size="11.00" fill="#e8f0ea">odio&#45;pwa</text>
</g>
<!-- api -->
<g id="node4" class="node">
<title>api</title>
<polygon fill="#152018" stroke="#7ab896" stroke-width="1.5" points="247.12,-330.5 102.88,-330.5 102.88,-294.5 247.12,-294.5 247.12,-330.5"/>
<text xml:space="preserve" text-anchor="middle" x="175" y="-315.55" font-family="monospace" font-size="11.00" fill="#7ab896">go&#45;odio&#45;api</text>
<text xml:space="preserve" text-anchor="middle" x="175" y="-302.05" font-family="monospace" font-size="11.00" fill="#7ab896">REST + SSE + Web UI</text>
</g>
<!-- pwa&#45;&gt;api -->
<g id="edge1" class="edge">
<title>pwa&#45;&gt;api</title>
<path fill="none" stroke="#2a4030" stroke-dasharray="5,2" d="M113.94,-396.88C113.94,-396.88 113.94,-342.57 113.94,-342.57"/>
<polygon fill="#2a4030" stroke="#2a4030" points="117.44,-342.57 113.94,-332.57 110.44,-342.57 117.44,-342.57"/>
<text xml:space="preserve" text-anchor="middle" x="121.25" y="-370.7" font-family="monospace" font-size="9.00" fill="#8aab92">HTTP + SSE</text>
</g>
<!-- ha -->
<g id="node2" class="node">
<title>ha</title>
<polygon fill="#152018" stroke="#2a4030" stroke-width="0.8" points="206.62,-433.25 143.38,-433.25 143.38,-397.25 206.62,-397.25 206.62,-433.25"/>
<text xml:space="preserve" text-anchor="middle" x="175" y="-411.55" font-family="monospace" font-size="11.00" fill="#e8f0ea">odio&#45;ha</text>
</g>
<!-- ha&#45;&gt;api -->
<g id="edge2" class="edge">
<title>ha&#45;&gt;api</title>
<path fill="none" stroke="#2a4030" stroke-dasharray="5,2" d="M175,-396.88C175,-396.88 175,-342.57 175,-342.57"/>
<polygon fill="#2a4030" stroke="#2a4030" points="178.5,-342.57 175,-332.57 171.5,-342.57 178.5,-342.57"/>
<text xml:space="preserve" text-anchor="middle" x="201.25" y="-370.7" font-family="monospace" font-size="9.00" fill="#8aab92">HTTP + SSE</text>
</g>
<!-- custom -->
<g id="node3" class="node">
<title>custom</title>
<polygon fill="#152018" stroke="#2a4030" stroke-width="0.8" stroke-dasharray="5,2" points="341.62,-433.25 224.38,-433.25 224.38,-397.25 341.62,-397.25 341.62,-433.25"/>
<text xml:space="preserve" text-anchor="middle" x="283" y="-411.55" font-family="monospace" font-size="11.00" fill="#8aab92"> &#160;Your client &#160;</text>
</g>
<!-- custom&#45;&gt;api -->
<g id="edge3" class="edge">
<title>custom&#45;&gt;api</title>
<path fill="none" stroke="#2a4030" stroke-dasharray="5,2" d="M235.75,-396.88C235.75,-396.88 235.75,-342.57 235.75,-342.57"/>
<polygon fill="#2a4030" stroke="#2a4030" points="239.25,-342.57 235.75,-332.57 232.25,-342.57 239.25,-342.57"/>
<text xml:space="preserve" text-anchor="middle" x="277.5" y="-370.7" font-family="monospace" font-size="9.00" fill="#8aab92">HTTP</text>
</g>
<!-- mpris -->
<g id="node5" class="node">
<title>mpris</title>
<polygon fill="#152018" stroke="#2a4030" stroke-width="0.8" points="477,-125 423,-125 423,-89 477,-89 477,-125"/>
<text xml:space="preserve" text-anchor="middle" x="450" y="-103.3" font-family="monospace" font-size="11.00" fill="#e8f0ea">MPRIS</text>
</g>
<!-- api&#45;&gt;mpris -->
<g id="edge4" class="edge">
<title>api&#45;&gt;mpris</title>
<path fill="none" stroke="#7ab896" d="M247.75,-316C326.59,-316 441.25,-316 441.25,-316 441.25,-316 441.25,-136.7 441.25,-136.7"/>
<polygon fill="#7ab896" stroke="#7ab896" points="444.75,-136.7 441.25,-126.7 437.75,-136.7 444.75,-136.7"/>
</g>
<!-- bluez_dbus -->
<g id="node6" class="node">
<title>bluez_dbus</title>
<polygon fill="#152018" stroke="#2a4030" stroke-width="0.8" points="152,-125 98,-125 98,-89 152,-89 152,-125"/>
<text xml:space="preserve" text-anchor="middle" x="125" y="-103.3" font-family="monospace" font-size="11.00" fill="#e8f0ea">BlueZ</text>
</g>
<!-- api&#45;&gt;bluez_dbus -->
<g id="edge5" class="edge">
<title>api&#45;&gt;bluez_dbus</title>
<path fill="none" stroke="#7ab896" d="M176.62,-293.85C176.62,-245.17 176.62,-118 176.62,-118 176.62,-118 163.84,-118 163.84,-118"/>
<polygon fill="#7ab896" stroke="#7ab896" points="163.84,-114.5 153.84,-118 163.84,-121.5 163.84,-114.5"/>
</g>
<!-- logind -->
<g id="node7" class="node">
<title>logind</title>
<polygon fill="#152018" stroke="#2a4030" stroke-width="0.8" points="80.25,-125 23.75,-125 23.75,-89 80.25,-89 80.25,-125"/>
<text xml:space="preserve" text-anchor="middle" x="52" y="-103.3" font-family="monospace" font-size="11.00" fill="#e8f0ea">logind</text>
</g>
<!-- api&#45;&gt;logind -->
<g id="edge6" class="edge">
<title>api&#45;&gt;logind</title>
<path fill="none" stroke="#7ab896" d="M102.19,-313C83.04,-313 67.62,-313 67.62,-313 67.62,-313 67.62,-136.79 67.62,-136.79"/>
<polygon fill="#7ab896" stroke="#7ab896" points="71.13,-136.79 67.63,-126.79 64.13,-136.79 71.13,-136.79"/>
</g>
<!-- pulse -->
<g id="node8" class="node">
<title>pulse</title>
<polygon fill="#152018" stroke="#2a4030" stroke-width="0.8" points="270.75,-52 187.25,-52 187.25,-16 270.75,-16 270.75,-52"/>
<text xml:space="preserve" text-anchor="middle" x="229" y="-30.3" font-family="monospace" font-size="11.00" fill="#e8f0ea">PulseAudio</text>
</g>
<!-- api&#45;&gt;pulse -->
<g id="edge7" class="edge">
<title>api&#45;&gt;pulse</title>
<path fill="none" stroke="#7ab896" d="M194.62,-293.79C194.62,-293.79 194.62,-63.77 194.62,-63.77"/>
<polygon fill="#7ab896" stroke="#7ab896" points="198.13,-63.77 194.63,-53.77 191.13,-63.77 198.13,-63.77"/>
<text xml:space="preserve" text-anchor="middle" x="105" y="-165.2" font-family="monospace" font-size="9.00" fill="#8aab92">volume / routing</text>
</g>
<!-- api&#45;&gt;pulse -->
<g id="edge13" class="edge">
<title>api&#45;&gt;pulse</title>
<path fill="none" stroke="#7ab896" stroke-dasharray="5,2" d="M198.31,-293.79C198.31,-293.79 198.31,-63.77 198.31,-63.77"/>
<polygon fill="#7ab896" stroke="#7ab896" points="201.81,-63.77 198.31,-53.77 194.81,-63.77 201.81,-63.77"/>
<text xml:space="preserve" text-anchor="middle" x="197.62" y="-165.2" font-family="monospace" font-size="9.00" fill="#7ab896">systemctl</text>
</g>
<!-- mpd -->
<g id="node9" class="node">
<title>mpd</title>
<polygon fill="#152018" stroke="#2a4030" stroke-width="0.8" points="256,-227.75 202,-227.75 202,-191.75 256,-191.75 256,-227.75"/>
<text xml:space="preserve" text-anchor="middle" x="229" y="-206.05" font-family="monospace" font-size="11.00" fill="#e8f0ea">MPD</text>
</g>
<!-- api&#45;&gt;mpd -->
<g id="edge8" class="edge">
<title>api&#45;&gt;mpd</title>
<path fill="none" stroke="#7ab896" stroke-dasharray="5,2" d="M224.56,-294.13C224.56,-294.13 224.56,-239.47 224.56,-239.47"/>
<polygon fill="#7ab896" stroke="#7ab896" points="228.06,-239.47 224.56,-229.47 221.06,-239.47 228.06,-239.47"/>
<text xml:space="preserve" text-anchor="middle" x="241.62" y="-267.95" font-family="monospace" font-size="9.00" fill="#7ab896">systemctl</text>
</g>
<!-- shairport -->
<g id="node10" class="node">
<title>shairport</title>
<polygon fill="#152018" stroke="#2a4030" stroke-width="0.8" points="601.5,-227.75 450.5,-227.75 450.5,-191.75 601.5,-191.75 601.5,-227.75"/>
<text xml:space="preserve" text-anchor="middle" x="526" y="-206.05" font-family="monospace" font-size="11.00" fill="#e8f0ea"> &#160;&#160;Shairport Sync &#160;&#160;</text>
</g>
<!-- api&#45;&gt;shairport -->
<g id="edge9" class="edge">
<title>api&#45;&gt;shairport</title>
<path fill="none" stroke="#7ab896" stroke-dasharray="5,2" d="M247.73,-323C350.54,-323 526,-323 526,-323 526,-323 526,-239.46 526,-239.46"/>
<polygon fill="#7ab896" stroke="#7ab896" points="529.5,-239.46 526,-229.46 522.5,-239.46 529.5,-239.46"/>
<text xml:space="preserve" text-anchor="middle" x="513.62" y="-267.95" font-family="monospace" font-size="9.00" fill="#7ab896">systemctl</text>
</g>
<!-- spotifyd -->
<g id="node11" class="node">
<title>spotifyd</title>
<polygon fill="#152018" stroke="#2a4030" stroke-width="0.8" points="344,-227.75 274,-227.75 274,-191.75 344,-191.75 344,-227.75"/>
<text xml:space="preserve" text-anchor="middle" x="309" y="-206.05" font-family="monospace" font-size="11.00" fill="#e8f0ea">Spotifyd</text>
</g>
<!-- api&#45;&gt;spotifyd -->
<g id="edge10" class="edge">
<title>api&#45;&gt;spotifyd</title>
<path fill="none" stroke="#7ab896" stroke-dasharray="5,2" d="M247.62,-302C278.63,-302 307.81,-302 307.81,-302 307.81,-302 307.81,-239.49 307.81,-239.49"/>
<polygon fill="#7ab896" stroke="#7ab896" points="311.31,-239.49 307.81,-229.49 304.31,-239.49 311.31,-239.49"/>
<text xml:space="preserve" text-anchor="middle" x="322.62" y="-267.95" font-family="monospace" font-size="9.00" fill="#7ab896">systemctl</text>
</g>
<!-- snapcast -->
<g id="node12" class="node">
<title>snapcast</title>
<polygon fill="#152018" stroke="#2a4030" stroke-width="0.8" points="432,-227.75 362,-227.75 362,-191.75 432,-191.75 432,-227.75"/>
<text xml:space="preserve" text-anchor="middle" x="397" y="-206.05" font-family="monospace" font-size="11.00" fill="#e8f0ea">Snapcast</text>
</g>
<!-- api&#45;&gt;snapcast -->
<g id="edge11" class="edge">
<title>api&#45;&gt;snapcast</title>
<path fill="none" stroke="#7ab896" stroke-dasharray="5,2" d="M247.69,-309C312.44,-309 397,-309 397,-309 397,-309 397,-239.47 397,-239.47"/>
<polygon fill="#7ab896" stroke="#7ab896" points="400.5,-239.47 397,-229.47 393.5,-239.47 400.5,-239.47"/>
<text xml:space="preserve" text-anchor="middle" x="406.62" y="-267.95" font-family="monospace" font-size="9.00" fill="#7ab896">systemctl</text>
</g>
<!-- upmpdcli -->
<g id="node13" class="node">
<title>upmpdcli</title>
<polygon fill="#152018" stroke="#2a4030" stroke-width="0.8" points="166,-227.75 96,-227.75 96,-191.75 166,-191.75 166,-227.75"/>
<text xml:space="preserve" text-anchor="middle" x="131" y="-206.05" font-family="monospace" font-size="11.00" fill="#e8f0ea">upmpdcli</text>
</g>
<!-- api&#45;&gt;upmpdcli -->
<g id="edge12" class="edge">
<title>api&#45;&gt;upmpdcli</title>
<path fill="none" stroke="#7ab896" stroke-dasharray="5,2" d="M134.44,-294.13C134.44,-294.13 134.44,-239.47 134.44,-239.47"/>
<polygon fill="#7ab896" stroke="#7ab896" points="137.94,-239.47 134.44,-229.47 130.94,-239.47 137.94,-239.47"/>
<text xml:space="preserve" text-anchor="middle" x="163.62" y="-267.95" font-family="monospace" font-size="9.00" fill="#7ab896">systemctl</text>
</g>
<!-- bluez_dbus&#45;&gt;pulse -->
<g id="edge18" class="edge">
<title>bluez_dbus&#45;&gt;pulse</title>
<path fill="none" stroke="#2a4030" d="M152.2,-96C170.36,-96 190.94,-96 190.94,-96 190.94,-96 190.94,-63.78 190.94,-63.78"/>
<polygon fill="#2a4030" stroke="#2a4030" points="194.44,-63.78 190.94,-53.78 187.44,-63.78 194.44,-63.78"/>
</g>
<!-- mpd&#45;&gt;mpris -->
<g id="edge20" class="edge">
<title>mpd&#45;&gt;mpris</title>
<path fill="none" stroke="#2a4030" d="M238,-191.64C238,-161.19 238,-103 238,-103 238,-103 411.21,-103 411.21,-103"/>
<polygon fill="#2a4030" stroke="#2a4030" points="411.21,-106.5 421.21,-103 411.21,-99.5 411.21,-106.5"/>
</g>
<!-- mpd&#45;&gt;pulse -->
<g id="edge14" class="edge">
<title>mpd&#45;&gt;pulse</title>
<path fill="none" stroke="#2a4030" d="M220,-191.6C220,-191.6 220,-63.82 220,-63.82"/>
<polygon fill="#2a4030" stroke="#2a4030" points="223.5,-63.82 220,-53.82 216.5,-63.82 223.5,-63.82"/>
</g>
<!-- shairport&#45;&gt;mpris -->
<g id="edge21" class="edge">
<title>shairport&#45;&gt;mpris</title>
<path fill="none" stroke="#2a4030" d="M463.75,-191.38C463.75,-191.38 463.75,-136.72 463.75,-136.72"/>
<polygon fill="#2a4030" stroke="#2a4030" points="467.25,-136.72 463.75,-126.72 460.25,-136.72 467.25,-136.72"/>
</g>
<!-- shairport&#45;&gt;pulse -->
<g id="edge15" class="edge">
<title>shairport&#45;&gt;pulse</title>
<path fill="none" stroke="#2a4030" d="M539.25,-191.66C539.25,-145.69 539.25,-28 539.25,-28 539.25,-28 282.36,-28 282.36,-28"/>
<polygon fill="#2a4030" stroke="#2a4030" points="282.36,-24.5 272.36,-28 282.36,-31.5 282.36,-24.5"/>
</g>
<!-- spotifyd&#45;&gt;mpris -->
<g id="edge22" class="edge">
<title>spotifyd&#45;&gt;mpris</title>
<path fill="none" stroke="#2a4030" d="M309,-191.64C309,-163.13 309,-111 309,-111 309,-111 411.3,-111 411.3,-111"/>
<polygon fill="#2a4030" stroke="#2a4030" points="411.3,-114.5 421.3,-111 411.3,-107.5 411.3,-114.5"/>
</g>
<!-- spotifyd&#45;&gt;pulse -->
<g id="edge17" class="edge">
<title>spotifyd&#45;&gt;pulse</title>
<path fill="none" stroke="#2a4030" d="M273.96,-210C267.83,-210 263.38,-210 263.38,-210 263.38,-210 263.38,-63.69 263.38,-63.69"/>
<polygon fill="#2a4030" stroke="#2a4030" points="266.88,-63.69 263.38,-53.69 259.88,-63.69 266.88,-63.69"/>
</g>
<!-- snapcast&#45;&gt;mpris -->
<g id="edge23" class="edge">
<title>snapcast&#45;&gt;mpris</title>
<path fill="none" stroke="#2a4030" d="M427.5,-191.38C427.5,-191.38 427.5,-136.72 427.5,-136.72"/>
<polygon fill="#2a4030" stroke="#2a4030" points="431,-136.72 427.5,-126.72 424,-136.72 431,-136.72"/>
</g>
<!-- snapcast&#45;&gt;pulse -->
<g id="edge16" class="edge">
<title>snapcast&#45;&gt;pulse</title>
<path fill="none" stroke="#2a4030" d="M392.5,-191.58C392.5,-147.79 392.5,-40 392.5,-40 392.5,-40 282.62,-40 282.62,-40"/>
<polygon fill="#2a4030" stroke="#2a4030" points="282.62,-36.5 272.62,-40 282.62,-43.5 282.62,-36.5"/>
</g>
<!-- upmpdcli&#45;&gt;mpd -->
<g id="edge19" class="edge">
<title>upmpdcli&#45;&gt;mpd</title>
<path fill="none" stroke="#2a4030" d="M166.38,-210C166.38,-210 190.16,-210 190.16,-210"/>
<polygon fill="#2a4030" stroke="#2a4030" points="190.16,-213.5 200.16,-210 190.16,-206.5 190.16,-213.5"/>
</g>
</g>
</svg>
