<?xml version="1.0" encoding="UTF-8" standalone="no"?>
<!DOCTYPE svg PUBLIC "-//W3C//DTD SVG 1.1//EN"
 "http://www.w3.org/Graphics/SVG/1.1/DTD/svg11.dtd">
<!-- Generated by graphviz version 14.1.3 (20260303.0454)
 -->
<!-- Title: odio_network Pages: 1 -->
<svg width="1284pt" height="590pt"
 viewBox="0.00 0.00 1284.00 590.00" xmlns="http://www.w3.org/2000/svg" xmlns:xlink="http://www.w3.org/1999/xlink">
<g id="graph0" class="graph" transform="scale(1 1) rotate(0) translate(4 585.5)">
<title>odio_network</title>
<g id="clust1" class="cluster">
<title>cluster_desktop</title>
<polygon fill="#111d14" stroke="#4a7c59" stroke-width="1.5" points="484,-500 484,-573.5 916,-573.5 916,-500 484,-500"/>
<text xml:space="preserve" text-anchor="middle" x="700" y="-559.05" font-family="monospace" font-size="11.00" fill="#e8f0ea">Mac / PC / Linux</text>
</g>
<g id="clust2" class="cluster">
<title>cluster_phone</title>
<polygon fill="#111d14" stroke="#4a7c59" stroke-width="1.5" points="8,-377 8,-573.5 476,-573.5 476,-377 8,-377"/>
<text xml:space="preserve" text-anchor="middle" x="242" y="-559.05" font-family="monospace" font-size="11.00" fill="#e8f0ea">Phone / Tablet</text>
</g>
<g id="clust3" class="cluster">
<title>cluster_nas</title>
<polygon fill="#111d14" stroke="#4a7c59" stroke-width="1.5" points="924,-500 924,-573.5 1268,-573.5 1268,-500 924,-500"/>
<text xml:space="preserve" text-anchor="middle" x="1096" y="-559.05" font-family="monospace" font-size="11.00" fill="#e8f0ea">NAS</text>
</g>
<g id="clust4" class="cluster">
<title>cluster_odio</title>
<polygon fill="#0d1a10" stroke="#7ab896" stroke-width="2" points="419,-8 419,-330.5 955,-330.5 955,-8 419,-8"/>
<text xml:space="preserve" text-anchor="middle" x="687" y="-314.15" font-family="monospace" font-size="13.00" fill="#7ab896">odios</text>
</g>
<!-- d_airplay -->
<g id="node1" class="node">
<title>d_airplay</title>
<polygon fill="#152018" stroke="#2a4030" stroke-width="0.8" points="624,-544 570,-544 570,-508 624,-508 624,-544"/>
<text xml:space="preserve" text-anchor="middle" x="597" y="-523.08" font-family="monospace" font-size="9.00" fill="#e8f0ea">AirPlay</text>
</g>
<!-- shairport -->
<g id="node18" class="node">
<title>shairport</title>
<polygon fill="#152018" stroke="#2a4030" stroke-width="0.8" points="617,-298 517,-298 517,-262 617,-262 617,-298"/>
<text xml:space="preserve" text-anchor="middle" x="567" y="-276.88" font-family="monospace" font-size="10.00" fill="#e8f0ea">Shairport Sync</text>
</g>
<!-- d_airplay&#45;&gt;shairport -->
<g id="edge1" class="edge">
<title>d_airplay&#45;&gt;shairport</title>
<path fill="none" stroke="#4a7c59" d="M594.89,-507.84C589.66,-465.32 576.09,-354.92 570.02,-305.52"/>
<polygon fill="#4a7c59" stroke="#4a7c59" points="572.11,-305.34 569.29,-299.64 567.94,-305.85 572.11,-305.34"/>
</g>
<!-- d_spotify -->
<g id="node2" class="node">
<title>d_spotify</title>
<polygon fill="#152018" stroke="#2a4030" stroke-width="0.8" points="732.38,-544 637.62,-544 637.62,-508 732.38,-508 732.38,-544"/>
<text xml:space="preserve" text-anchor="middle" x="685" y="-523.08" font-family="monospace" font-size="9.00" fill="#e8f0ea">Spotify Connect</text>
</g>
<!-- spotifyd -->
<g id="node19" class="node">
<title>spotifyd</title>
<polygon fill="#152018" stroke="#2a4030" stroke-width="0.8" points="695,-298 631,-298 631,-262 695,-262 695,-298"/>
<text xml:space="preserve" text-anchor="middle" x="663" y="-276.88" font-family="monospace" font-size="10.00" fill="#e8f0ea">spotifyd</text>
</g>
<!-- d_spotify&#45;&gt;spotifyd -->
<g id="edge2" class="edge">
<title>d_spotify&#45;&gt;spotifyd</title>
<path fill="none" stroke="#4a7c59" d="M683.45,-507.84C679.62,-465.32 669.67,-354.92 665.21,-305.52"/>
<polygon fill="#4a7c59" stroke="#4a7c59" points="667.31,-305.43 664.68,-299.65 663.13,-305.81 667.31,-305.43"/>
</g>
<!-- d_bt -->
<g id="node3" class="node">
<title>d_bt</title>
<polygon fill="#152018" stroke="#2a4030" stroke-width="0.8" points="555.62,-544 492.38,-544 492.38,-508 555.62,-508 555.62,-544"/>
<text xml:space="preserve" text-anchor="middle" x="524" y="-523.08" font-family="monospace" font-size="9.00" fill="#e8f0ea">Bluetooth</text>
</g>
<!-- bluez_a2dp -->
<g id="node20" class="node">
<title>bluez_a2dp</title>
<polygon fill="#152018" stroke="#2a4030" stroke-width="0.8" points="503,-298 427,-298 427,-262 503,-262 503,-298"/>
<text xml:space="preserve" text-anchor="middle" x="465" y="-276.88" font-family="monospace" font-size="10.00" fill="#e8f0ea">BlueZ A2DP</text>
</g>
<!-- d_bt&#45;&gt;bluez_a2dp -->
<g id="edge3" class="edge">
<title>d_bt&#45;&gt;bluez_a2dp</title>
<path fill="none" stroke="#4a7c59" d="M520.09,-507.63C517.32,-495.41 513.49,-478.69 510,-464 496.47,-407.09 479.89,-340.42 471.12,-305.37"/>
<polygon fill="#4a7c59" stroke="#4a7c59" points="473.23,-305.17 469.74,-299.86 469.16,-306.19 473.23,-305.17"/>
</g>
<!-- d_tcp -->
<g id="node4" class="node">
<title>d_tcp</title>
<polygon fill="#152018" stroke="#2a4030" stroke-width="0.8" points="907.75,-544 818.25,-544 818.25,-508 907.75,-508 907.75,-544"/>
<text xml:space="preserve" text-anchor="middle" x="863" y="-523.08" font-family="monospace" font-size="9.00" fill="#e8f0ea">PulseAudio TCP</text>
</g>
<!-- pulse -->
<g id="node24" class="node">
<title>pulse</title>
<polygon fill="#152018" stroke="#7ab896" stroke-width="0.8" points="736,-52 660,-52 660,-16 736,-16 736,-52"/>
<text xml:space="preserve" text-anchor="middle" x="698" y="-30.88" font-family="monospace" font-size="10.00" fill="#7ab896">PulseAudio</text>
</g>
<!-- d_tcp&#45;&gt;pulse -->
<g id="edge4" class="edge">
<title>d_tcp&#45;&gt;pulse</title>
<path fill="none" stroke="#4a7c59" d="M904.76,-507.69C923.51,-497.86 944.24,-483.71 957,-465 972.57,-442.17 969,-431.63 969,-404 969,-404 969,-404 969,-156 969,-58.42 820.68,-38.99 743.49,-35.49"/>
<polygon fill="#4a7c59" stroke="#4a7c59" points="743.84,-33.41 737.77,-35.26 743.68,-37.6 743.84,-33.41"/>
</g>
<!-- d_pwa -->
<g id="node5" class="node">
<title>d_pwa</title>
<polygon fill="#1a2e1e" stroke="#7ab896" stroke-width="0.8" points="804,-544 746,-544 746,-508 804,-508 804,-544"/>
<text xml:space="preserve" text-anchor="middle" x="775" y="-523.08" font-family="monospace" font-size="9.00" fill="#7ab896">odio&#45;pwa</text>
</g>
<!-- api -->
<g id="node17" class="node">
<title>api</title>
<polygon fill="#152018" stroke="#7ab896" stroke-width="0.8" points="869,-298 787,-298 787,-262 869,-262 869,-298"/>
<text xml:space="preserve" text-anchor="middle" x="828" y="-283.25" font-family="monospace" font-size="10.00" fill="#7ab896">go&#45;odio&#45;api</text>
<text xml:space="preserve" text-anchor="middle" x="828" y="-270.5" font-family="monospace" font-size="10.00" fill="#7ab896">REST + SSE</text>
</g>
<!-- d_pwa&#45;&gt;api -->
<g id="edge14" class="edge">
<title>d_pwa&#45;&gt;api</title>
<path fill="none" stroke="#7ab896" stroke-dasharray="5,2" d="M778.73,-507.84C787.98,-465.23 812.04,-354.47 822.74,-305.22"/>
<polygon fill="#7ab896" stroke="#7ab896" points="824.73,-305.93 823.96,-299.62 820.63,-305.04 824.73,-305.93"/>
<text xml:space="preserve" text-anchor="middle" x="827.99" y="-400.07" font-family="monospace" font-size="9.00" fill="#7ab896">HTTP+SSE</text>
</g>
<!-- p_airplay -->
<g id="node6" class="node">
<title>p_airplay</title>
<polygon fill="#152018" stroke="#2a4030" stroke-width="0.8" points="148,-544 94,-544 94,-508 148,-508 148,-544"/>
<text xml:space="preserve" text-anchor="middle" x="121" y="-523.08" font-family="monospace" font-size="9.00" fill="#e8f0ea">AirPlay</text>
</g>
<!-- p_airplay&#45;&gt;shairport -->
<g id="edge5" class="edge">
<title>p_airplay&#45;&gt;shairport</title>
<path fill="none" stroke="#4a7c59" d="M140.82,-507.78C145.24,-504.73 150.08,-501.91 155,-500 289.99,-447.51 360.8,-548.7 479,-465 493.16,-454.98 537.2,-352.5 557.08,-304.97"/>
<polygon fill="#4a7c59" stroke="#4a7c59" points="558.99,-305.85 559.36,-299.51 555.11,-304.24 558.99,-305.85"/>
</g>
<!-- p_spotify -->
<g id="node7" class="node">
<title>p_spotify</title>
<polygon fill="#152018" stroke="#2a4030" stroke-width="0.8" points="256.38,-544 161.62,-544 161.62,-508 256.38,-508 256.38,-544"/>
<text xml:space="preserve" text-anchor="middle" x="209" y="-523.08" font-family="monospace" font-size="9.00" fill="#e8f0ea">Spotify Connect</text>
</g>
<!-- p_spotify&#45;&gt;spotifyd -->
<g id="edge6" class="edge">
<title>p_spotify&#45;&gt;spotifyd</title>
<path fill="none" stroke="#4a7c59" d="M242.38,-507.61C249.06,-504.68 256.15,-501.96 263,-500 384,-465.37 437.39,-531.89 544,-465 604.5,-427.04 640.26,-345.81 655.03,-305.18"/>
<polygon fill="#4a7c59" stroke="#4a7c59" points="656.93,-306.1 656.96,-299.75 652.97,-304.7 656.93,-306.1"/>
</g>
<!-- p_bt -->
<g id="node8" class="node">
<title>p_bt</title>
<polygon fill="#152018" stroke="#2a4030" stroke-width="0.8" points="79.62,-544 16.38,-544 16.38,-508 79.62,-508 79.62,-544"/>
<text xml:space="preserve" text-anchor="middle" x="48" y="-523.08" font-family="monospace" font-size="9.00" fill="#e8f0ea">Bluetooth</text>
</g>
<!-- p_bt&#45;&gt;bluez_a2dp -->
<g id="edge7" class="edge">
<title>p_bt&#45;&gt;bluez_a2dp</title>
<path fill="none" stroke="#4a7c59" d="M71,-507.76C76.05,-504.7 81.53,-501.9 87,-500 162.52,-473.81 388.17,-521.22 445,-465 487.58,-422.88 478.76,-344.55 470.81,-305.07"/>
<polygon fill="#4a7c59" stroke="#4a7c59" points="472.96,-305.08 469.66,-299.65 468.85,-305.95 472.96,-305.08"/>
</g>
<!-- p_upnp -->
<g id="node9" class="node">
<title>p_upnp</title>
<polygon fill="#152018" stroke="#2a4030" stroke-width="0.8" points="468,-544 414,-544 414,-508 468,-508 468,-544"/>
<text xml:space="preserve" text-anchor="middle" x="441" y="-523.08" font-family="monospace" font-size="9.00" fill="#e8f0ea">UPnP</text>
</g>
<!-- upmpdcli -->
<g id="node21" class="node">
<title>upmpdcli</title>
<polygon fill="#152018" stroke="#2a4030" stroke-width="0.8" points="947,-298 883,-298 883,-262 947,-262 947,-298"/>
<text xml:space="preserve" text-anchor="middle" x="915" y="-276.88" font-family="monospace" font-size="10.00" fill="#e8f0ea">upmpdcli</text>
</g>
<!-- p_upnp&#45;&gt;upmpdcli -->
<g id="edge8" class="edge">
<title>p_upnp&#45;&gt;upmpdcli</title>
<path fill="none" stroke="#4a7c59" d="M464.63,-507.74C469.81,-504.69 475.41,-501.89 481,-500 560.5,-473.15 791.7,-517.71 857,-465 905.7,-425.69 914.21,-345.73 915.25,-305.41"/>
<polygon fill="#4a7c59" stroke="#4a7c59" points="917.34,-305.9 915.34,-299.87 913.14,-305.84 917.34,-305.9"/>
</g>
<!-- p_snap -->
<g id="node10" class="node">
<title>p_snap</title>
<polygon fill="#152018" stroke="#2a4030" stroke-width="0.8" points="328,-544 270,-544 270,-508 328,-508 328,-544"/>
<text xml:space="preserve" text-anchor="middle" x="299" y="-523.08" font-family="monospace" font-size="9.00" fill="#e8f0ea">Snapcast</text>
</g>
<!-- snapcast -->
<g id="node22" class="node">
<title>snapcast</title>
<polygon fill="#152018" stroke="#2a4030" stroke-width="0.8" points="773,-298 709,-298 709,-262 773,-262 773,-298"/>
<text xml:space="preserve" text-anchor="middle" x="741" y="-276.88" font-family="monospace" font-size="10.00" fill="#e8f0ea">Snapcast</text>
</g>
<!-- p_snap&#45;&gt;snapcast -->
<g id="edge9" class="edge">
<title>p_snap&#45;&gt;snapcast</title>
<path fill="none" stroke="#4a7c59" d="M320.13,-507.85C324.79,-504.79 329.88,-501.95 335,-500 454.23,-454.5 511.58,-532.32 620,-465 651.51,-445.43 704.77,-349.82 728.7,-304.68"/>
<polygon fill="#4a7c59" stroke="#4a7c59" points="730.5,-305.77 731.45,-299.48 726.79,-303.81 730.5,-305.77"/>
</g>
<!-- p_malp -->
<g id="node11" class="node">
<title>p_malp</title>
<polygon fill="#152018" stroke="#2a4030" stroke-width="0.8" points="434,-421 376,-421 376,-385 434,-385 434,-421"/>
<text xml:space="preserve" text-anchor="middle" x="405" y="-400.07" font-family="monospace" font-size="9.00" fill="#e8f0ea">M.A.L.P.</text>
</g>
<!-- mpd -->
<g id="node23" class="node">
<title>mpd</title>
<polygon fill="#152018" stroke="#2a4030" stroke-width="0.8" points="683,-175 629,-175 629,-139 683,-139 683,-175"/>
<text xml:space="preserve" text-anchor="middle" x="656" y="-153.88" font-family="monospace" font-size="10.00" fill="#e8f0ea">MPD</text>
</g>
<!-- p_malp&#45;&gt;mpd -->
<g id="edge10" class="edge">
<title>p_malp&#45;&gt;mpd</title>
<path fill="none" stroke="#4a7c59" d="M401.8,-385.01C397.45,-356.59 393.02,-298.9 420,-262 468.45,-195.72 568.58,-171.03 621.49,-162.36"/>
<polygon fill="#4a7c59" stroke="#4a7c59" points="621.54,-164.48 627.14,-161.47 620.89,-160.33 621.54,-164.48"/>
</g>
<!-- p_pwa -->
<g id="node12" class="node">
<title>p_pwa</title>
<polygon fill="#1a2e1e" stroke="#7ab896" stroke-width="0.8" points="400,-544 342,-544 342,-508 400,-508 400,-544"/>
<text xml:space="preserve" text-anchor="middle" x="371" y="-523.08" font-family="monospace" font-size="9.00" fill="#7ab896">odio&#45;pwa</text>
</g>
<!-- p_pwa&#45;&gt;api -->
<g id="edge15" class="edge">
<title>p_pwa&#45;&gt;api</title>
<path fill="none" stroke="#7ab896" stroke-dasharray="5,2" d="M392.12,-507.82C396.78,-504.76 401.87,-501.94 407,-500 533.82,-452.12 594.98,-536.75 710,-465 770.44,-427.29 805.69,-345.94 820.2,-305.23"/>
<polygon fill="#7ab896" stroke="#7ab896" points="822.1,-306.15 822.09,-299.79 818.13,-304.77 822.1,-306.15"/>
</g>
<!-- n_snap -->
<g id="node13" class="node">
<title>n_snap</title>
<polygon fill="#152018" stroke="#2a4030" stroke-width="0.8" points="990,-544 932,-544 932,-508 990,-508 990,-544"/>
<text xml:space="preserve" text-anchor="middle" x="961" y="-523.08" font-family="monospace" font-size="9.00" fill="#e8f0ea">Snapcast</text>
</g>
<!-- n_snap&#45;&gt;snapcast -->
<g id="edge11" class="edge">
<title>n_snap&#45;&gt;snapcast</title>
<path fill="none" stroke="#4a7c59" d="M939.83,-507.84C926.15,-496.33 908.3,-480.49 894,-465 860.65,-428.89 859.44,-413.93 827,-377 807.61,-354.92 799.57,-352.42 780,-330.5 772.54,-322.15 764.81,-312.56 758.22,-304.06"/>
<polygon fill="#4a7c59" stroke="#4a7c59" points="760.1,-303.06 754.77,-299.58 756.76,-305.61 760.1,-303.06"/>
</g>
<!-- n_mpd -->
<g id="node14" class="node">
<title>n_mpd</title>
<polygon fill="#152018" stroke="#2a4030" stroke-width="0.8" points="1260,-544 1206,-544 1206,-508 1260,-508 1260,-544"/>
<text xml:space="preserve" text-anchor="middle" x="1233" y="-523.08" font-family="monospace" font-size="9.00" fill="#e8f0ea">MPD</text>
</g>
<!-- n_mpd&#45;&gt;pulse -->
<g id="edge12" class="edge">
<title>n_mpd&#45;&gt;pulse</title>
<path fill="none" stroke="#4a7c59" d="M1216.6,-507.71C1197.34,-485.54 1168,-445.02 1168,-404 1168,-404 1168,-404 1168,-156 1168,-68.91 861.56,-43.57 743.56,-37.04"/>
<polygon fill="#4a7c59" stroke="#4a7c59" points="743.68,-34.95 737.58,-36.72 743.45,-39.14 743.68,-34.95"/>
</g>
<!-- n_upnp -->
<g id="node15" class="node">
<title>n_upnp</title>
<polygon fill="#152018" stroke="#2a4030" stroke-width="0.8" points="1192.12,-544 1107.88,-544 1107.88,-508 1192.12,-508 1192.12,-544"/>
<text xml:space="preserve" text-anchor="middle" x="1150" y="-523.08" font-family="monospace" font-size="9.00" fill="#e8f0ea">UPnP/minidlna</text>
</g>
<!-- n_upnp&#45;&gt;upmpdcli -->
<g id="edge13" class="edge">
<title>n_upnp&#45;&gt;upmpdcli</title>
<path fill="none" stroke="#4a7c59" d="M1133.48,-507.84C1091.93,-464.7 983.12,-351.73 936.6,-303.43"/>
<polygon fill="#4a7c59" stroke="#4a7c59" points="938.23,-302.09 932.56,-299.23 935.21,-305.01 938.23,-302.09"/>
</g>
<!-- n_ha -->
<g id="node16" class="node">
<title>n_ha</title>
<polygon fill="#1a2e1e" stroke="#7ab896" stroke-width="0.8" points="1093.75,-544 1004.25,-544 1004.25,-508 1093.75,-508 1093.75,-544"/>
<text xml:space="preserve" text-anchor="middle" x="1049" y="-523.08" font-family="monospace" font-size="9.00" fill="#7ab896">Home Assistant</text>
</g>
<!-- n_ha&#45;&gt;api -->
<g id="edge16" class="edge">
<title>n_ha&#45;&gt;api</title>
<path fill="none" stroke="#7ab896" stroke-dasharray="5,2" d="M1033.46,-507.84C994.39,-464.7 892.06,-351.73 848.31,-303.43"/>
<polygon fill="#7ab896" stroke="#7ab896" points="850.12,-302.3 844.54,-299.26 847.01,-305.12 850.12,-302.3"/>
<text xml:space="preserve" text-anchor="middle" x="975.11" y="-400.07" font-family="monospace" font-size="9.00" fill="#7ab896">HTTP+SSE</text>
</g>
<!-- shairport&#45;&gt;pulse -->
<g id="edge17" class="edge">
<title>shairport&#45;&gt;pulse</title>
<path fill="none" stroke="#4a7c59" d="M572.11,-262C580.56,-235.01 598.85,-181.1 622,-139 638.38,-109.21 662.1,-78.14 678.67,-57.8"/>
<polygon fill="#4a7c59" stroke="#4a7c59" points="680.2,-59.24 682.39,-53.27 676.96,-56.57 680.2,-59.24"/>
</g>
<!-- spotifyd&#45;&gt;pulse -->
<g id="edge18" class="edge">
<title>spotifyd&#45;&gt;pulse</title>
<path fill="none" stroke="#4a7c59" d="M668.54,-261.92C674.91,-241.49 685.12,-206.14 690,-175 696.27,-134.99 697.77,-87.86 698.05,-59.76"/>
<polygon fill="#4a7c59" stroke="#4a7c59" points="700.15,-59.89 698.09,-53.87 695.95,-59.86 700.15,-59.89"/>
</g>
<!-- bluez_a2dp&#45;&gt;pulse -->
<g id="edge19" class="edge">
<title>bluez_a2dp&#45;&gt;pulse</title>
<path fill="none" stroke="#4a7c59" d="M481.38,-261.84C522.58,-218.7 630.46,-105.73 676.58,-57.43"/>
<polygon fill="#4a7c59" stroke="#4a7c59" points="677.96,-59.02 680.59,-53.23 674.93,-56.12 677.96,-59.02"/>
</g>
<!-- upmpdcli&#45;&gt;mpd -->
<g id="edge22" class="edge">
<title>upmpdcli&#45;&gt;mpd</title>
<path fill="none" stroke="#4a7c59" d="M882.72,-263.92C833.51,-240.93 740.14,-197.31 689.95,-173.86"/>
<polygon fill="#4a7c59" stroke="#4a7c59" points="690.86,-171.97 684.53,-171.33 689.08,-175.77 690.86,-171.97"/>
</g>
<!-- snapcast&#45;&gt;pulse -->
<g id="edge20" class="edge">
<title>snapcast&#45;&gt;pulse</title>
<path fill="none" stroke="#4a7c59" d="M737.98,-261.84C730.48,-219.32 711.03,-108.92 702.32,-59.52"/>
<polygon fill="#4a7c59" stroke="#4a7c59" points="704.39,-59.17 701.28,-53.63 700.26,-59.9 704.39,-59.17"/>
</g>
<!-- mpd&#45;&gt;pulse -->
<g id="edge21" class="edge">
<title>mpd&#45;&gt;pulse</title>
<path fill="none" stroke="#4a7c59" d="M662.02,-138.66C669.25,-117.82 681.44,-82.71 689.6,-59.2"/>
<polygon fill="#4a7c59" stroke="#4a7c59" points="691.51,-60.09 691.5,-53.73 687.55,-58.71 691.51,-60.09"/>
</g>
</g>
</svg>
