<?xml version="1.0" encoding="UTF-8" standalone="no"?>
<!DOCTYPE svg PUBLIC "-//W3C//DTD SVG 1.1//EN"
 "http://www.w3.org/Graphics/SVG/1.1/DTD/svg11.dtd">
<!-- Generated by graphviz version 9.0.0 (20230911.1827)
 -->
<!-- Title: odio Pages: 1 -->
<svg width="628pt" height="457pt"
 viewBox="0.00 0.00 628.00 457.25" xmlns="http://www.w3.org/2000/svg" xmlns:xlink="http://www.w3.org/1999/xlink">
<g id="graph0" class="graph" transform="scale(1 1) rotate(0) translate(4 453.25)">
<title>odio</title>
<g id="clust1" class="cluster">
<title>cluster_clients</title>
</g>
<g id="clust2" class="cluster">
<title>cluster_session</title>
<polygon fill="#0d1a10" stroke="#2a4030" stroke-width="2" points="8,-8 8,-360 612,-360 612,-8 8,-8"/>
<text text-anchor="middle" x="310" y="-345.55" font-family="monospace" font-size="11.00" fill="#8aab92">systemd user session</text>
</g>
<g id="clust3" class="cluster">
<title>cluster_dbus_session</title>
<polygon fill="#152018" stroke="#2a4030" stroke-width="2" points="471,-81 471,-154.5 574,-154.5 574,-81 471,-81"/>
<text text-anchor="middle" x="522.5" y="-140.05" font-family="monospace" font-size="11.00" fill="#8aab92">D&#45;Bus session</text>
</g>
<g id="clust4" class="cluster">
<title>cluster_dbus_system</title>
<polygon fill="#152018" stroke="#2a4030" stroke-width="2" points="16,-81 16,-154.5 160,-154.5 160,-81 16,-81"/>
<text text-anchor="middle" x="88" y="-140.05" font-family="monospace" font-size="11.00" fill="#8aab92">D&#45;Bus system</text>
</g>
<g id="clust5" class="cluster">
<title>cluster_sources</title>
<polygon fill="#152018" stroke="#2a4030" stroke-width="2" points="88,-183.75 88,-257.25 592,-257.25 592,-183.75 88,-183.75"/>
<text text-anchor="middle" x="340" y="-242.8" font-family="monospace" font-size="11.00" fill="#8aab92">Audio Sources</text>
</g>
<!-- pwa -->
<g id="node1" class="node">
<title>pwa</title>
<polygon fill="#152018" stroke="#2a4030" stroke-width="0.8" points="122,-433.25 52,-433.25 52,-397.25 122,-397.25 122,-433.25"/>
<text text-anchor="middle" x="87" y="-411.55" font-family="monospace" font-size="11.00" fill="#e8f0ea">odio&#45;pwa</text>
</g>
<!-- api -->
<g id="node4" class="node">
<title>api</title>
<polygon fill="#152018" stroke="#7ab896" stroke-width="1.5" points="244.12,-330.5 99.88,-330.5 99.88,-294.5 244.12,-294.5 244.12,-330.5"/>
<text text-anchor="middle" x="172" y="-315.55" font-family="monospace" font-size="11.00" fill="#7ab896">go&#45;odio&#45;api</text>
<text text-anchor="middle" x="172" y="-302.05" font-family="monospace" font-size="11.00" fill="#7ab896">REST + SSE + Web UI</text>
</g>
<!-- pwa&#45;&gt;api -->
<g id="edge1" class="edge">
<title>pwa&#45;&gt;api</title>
<path fill="none" stroke="#2a4030" stroke-dasharray="5,2" d="M110.94,-397.35C110.94,-397.35 110.94,-342.4 110.94,-342.4"/>
<polygon fill="#2a4030" stroke="#2a4030" points="114.44,-342.4 110.94,-332.4 107.44,-342.4 114.44,-342.4"/>
<text text-anchor="middle" x="118.25" y="-370.7" font-family="monospace" font-size="9.00" fill="#8aab92">HTTP + SSE</text>
</g>
<!-- ha -->
<g id="node2" class="node">
<title>ha</title>
<polygon fill="#152018" stroke="#2a4030" stroke-width="0.8" points="203.62,-433.25 140.38,-433.25 140.38,-397.25 203.62,-397.25 203.62,-433.25"/>
<text text-anchor="middle" x="172" y="-411.55" font-family="monospace" font-size="11.00" fill="#e8f0ea">odio&#45;ha</text>
</g>
<!-- ha&#45;&gt;api -->
<g id="edge2" class="edge">
<title>ha&#45;&gt;api</title>
<path fill="none" stroke="#2a4030" stroke-dasharray="5,2" d="M172,-397.35C172,-397.35 172,-342.4 172,-342.4"/>
<polygon fill="#2a4030" stroke="#2a4030" points="175.5,-342.4 172,-332.4 168.5,-342.4 175.5,-342.4"/>
<text text-anchor="middle" x="198.25" y="-370.7" font-family="monospace" font-size="9.00" fill="#8aab92">HTTP + SSE</text>
</g>
<!-- custom -->
<g id="node3" class="node">
<title>custom</title>
<polygon fill="#152018" stroke="#2a4030" stroke-width="0.8" stroke-dasharray="5,2" points="338.62,-433.25 221.38,-433.25 221.38,-397.25 338.62,-397.25 338.62,-433.25"/>
<text text-anchor="middle" x="280" y="-411.55" font-family="monospace" font-size="11.00" fill="#8aab92"> &#160;Your client &#160;</text>
</g>
<!-- custom&#45;&gt;api -->
<g id="edge3" class="edge">
<title>custom&#45;&gt;api</title>
<path fill="none" stroke="#2a4030" stroke-dasharray="5,2" d="M232.75,-397.35C232.75,-397.35 232.75,-342.4 232.75,-342.4"/>
<polygon fill="#2a4030" stroke="#2a4030" points="236.25,-342.4 232.75,-332.4 229.25,-342.4 236.25,-342.4"/>
<text text-anchor="middle" x="274.5" y="-370.7" font-family="monospace" font-size="9.00" fill="#8aab92">HTTP</text>
</g>
<!-- mpris -->
<g id="node5" class="node">
<title>mpris</title>
<polygon fill="#152018" stroke="#2a4030" stroke-width="0.8" points="556,-125 502,-125 502,-89 556,-89 556,-125"/>
<text text-anchor="middle" x="529" y="-103.3" font-family="monospace" font-size="11.00" fill="#e8f0ea">MPRIS</text>
</g>
<!-- api&#45;&gt;mpris -->
<g id="edge4" class="edge">
<title>api&#45;&gt;mpris</title>
<path fill="none" stroke="#7ab896" d="M244.51,-316C343.83,-316 510,-316 510,-316 510,-316 510,-136.33 510,-136.33"/>
<polygon fill="#7ab896" stroke="#7ab896" points="513.5,-136.33 510,-126.33 506.5,-136.33 513.5,-136.33"/>
</g>
<!-- bluez_dbus -->
<g id="node6" class="node">
<title>bluez_dbus</title>
<polygon fill="#152018" stroke="#2a4030" stroke-width="0.8" points="152,-125 98,-125 98,-89 152,-89 152,-125"/>
<text text-anchor="middle" x="125" y="-103.3" font-family="monospace" font-size="11.00" fill="#e8f0ea">BlueZ</text>
</g>
<!-- api&#45;&gt;bluez_dbus -->
<g id="edge5" class="edge">
<title>api&#45;&gt;bluez_dbus</title>
<path fill="none" stroke="#7ab896" d="M169.31,-294.1C169.31,-242.64 169.31,-101 169.31,-101 169.31,-101 163.31,-101 163.31,-101"/>
<polygon fill="#7ab896" stroke="#7ab896" points="163.31,-97.5 153.31,-101 163.31,-104.5 163.31,-97.5"/>
</g>
<!-- logind -->
<g id="node7" class="node">
<title>logind</title>
<polygon fill="#152018" stroke="#2a4030" stroke-width="0.8" points="80.25,-125 23.75,-125 23.75,-89 80.25,-89 80.25,-125"/>
<text text-anchor="middle" x="52" y="-103.3" font-family="monospace" font-size="11.00" fill="#e8f0ea">logind</text>
</g>
<!-- api&#45;&gt;logind -->
<g id="edge6" class="edge">
<title>api&#45;&gt;logind</title>
<path fill="none" stroke="#7ab896" d="M99.62,-312C81.01,-312 66.12,-312 66.12,-312 66.12,-312 66.12,-136.35 66.12,-136.35"/>
<polygon fill="#7ab896" stroke="#7ab896" points="69.63,-136.35 66.13,-126.35 62.63,-136.35 69.63,-136.35"/>
</g>
<!-- pulse -->
<g id="node8" class="node">
<title>pulse</title>
<polygon fill="#152018" stroke="#2a4030" stroke-width="0.8" points="262.75,-52 179.25,-52 179.25,-16 262.75,-16 262.75,-52"/>
<text text-anchor="middle" x="221" y="-30.3" font-family="monospace" font-size="11.00" fill="#e8f0ea">PulseAudio</text>
</g>
<!-- api&#45;&gt;pulse -->
<g id="edge7" class="edge">
<title>api&#45;&gt;pulse</title>
<path fill="none" stroke="#7ab896" d="M172.62,-294.4C172.62,-233.97 172.62,-43 172.62,-43 172.62,-43 173.3,-43 173.3,-43"/>
<polygon fill="#7ab896" stroke="#7ab896" points="167.84,-46.5 177.84,-43 167.84,-39.5 167.84,-46.5"/>
<text text-anchor="middle" x="103" y="-165.2" font-family="monospace" font-size="9.00" fill="#8aab92">volume / routing</text>
</g>
<!-- api&#45;&gt;pulse -->
<g id="edge13" class="edge">
<title>api&#45;&gt;pulse</title>
<path fill="none" stroke="#7ab896" stroke-dasharray="5,2" d="M175.94,-294.23C175.94,-232.27 175.94,-34 175.94,-34 175.94,-34 176.29,-34 176.29,-34"/>
<polygon fill="#7ab896" stroke="#7ab896" points="167.96,-37.5 177.96,-34 167.96,-30.5 167.96,-37.5"/>
<text text-anchor="middle" x="191.62" y="-165.2" font-family="monospace" font-size="9.00" fill="#7ab896">systemctl</text>
</g>
<!-- mpd -->
<g id="node9" class="node">
<title>mpd</title>
<polygon fill="#152018" stroke="#2a4030" stroke-width="0.8" points="326,-227.75 272,-227.75 272,-191.75 326,-191.75 326,-227.75"/>
<text text-anchor="middle" x="299" y="-206.05" font-family="monospace" font-size="11.00" fill="#e8f0ea">MPD</text>
</g>
<!-- api&#45;&gt;mpd -->
<g id="edge8" class="edge">
<title>api&#45;&gt;mpd</title>
<path fill="none" stroke="#7ab896" stroke-dasharray="5,2" d="M244.4,-301C272.92,-301 299,-301 299,-301 299,-301 299,-238.86 299,-238.86"/>
<polygon fill="#7ab896" stroke="#7ab896" points="302.5,-238.86 299,-228.86 295.5,-238.86 302.5,-238.86"/>
<text text-anchor="middle" x="314.62" y="-267.95" font-family="monospace" font-size="9.00" fill="#7ab896">systemctl</text>
</g>
<!-- shairport -->
<g id="node10" class="node">
<title>shairport</title>
<polygon fill="#152018" stroke="#2a4030" stroke-width="0.8" points="495.5,-227.75 344.5,-227.75 344.5,-191.75 495.5,-191.75 495.5,-227.75"/>
<text text-anchor="middle" x="420" y="-206.05" font-family="monospace" font-size="11.00" fill="#e8f0ea"> &#160;&#160;Shairport Sync &#160;&#160;</text>
</g>
<!-- api&#45;&gt;shairport -->
<g id="edge9" class="edge">
<title>api&#45;&gt;shairport</title>
<path fill="none" stroke="#7ab896" stroke-dasharray="5,2" d="M244.4,-308C317.6,-308 420,-308 420,-308 420,-308 420,-238.83 420,-238.83"/>
<polygon fill="#7ab896" stroke="#7ab896" points="423.5,-238.83 420,-228.83 416.5,-238.83 423.5,-238.83"/>
<text text-anchor="middle" x="414.62" y="-267.95" font-family="monospace" font-size="9.00" fill="#7ab896">systemctl</text>
</g>
<!-- spotifyd -->
<g id="node11" class="node">
<title>spotifyd</title>
<polygon fill="#152018" stroke="#2a4030" stroke-width="0.8" points="584,-227.75 514,-227.75 514,-191.75 584,-191.75 584,-227.75"/>
<text text-anchor="middle" x="549" y="-206.05" font-family="monospace" font-size="11.00" fill="#e8f0ea">Spotifyd</text>
</g>
<!-- api&#45;&gt;spotifyd -->
<g id="edge10" class="edge">
<title>api&#45;&gt;spotifyd</title>
<path fill="none" stroke="#7ab896" stroke-dasharray="5,2" d="M244.24,-323C353.71,-323 549,-323 549,-323 549,-323 549,-239.21 549,-239.21"/>
<polygon fill="#7ab896" stroke="#7ab896" points="552.5,-239.21 549,-229.21 545.5,-239.21 552.5,-239.21"/>
<text text-anchor="middle" x="528.62" y="-267.95" font-family="monospace" font-size="9.00" fill="#7ab896">systemctl</text>
</g>
<!-- snapcast -->
<g id="node12" class="node">
<title>snapcast</title>
<polygon fill="#152018" stroke="#2a4030" stroke-width="0.8" points="254,-227.75 184,-227.75 184,-191.75 254,-191.75 254,-227.75"/>
<text text-anchor="middle" x="219" y="-206.05" font-family="monospace" font-size="11.00" fill="#e8f0ea">Snapcast</text>
</g>
<!-- api&#45;&gt;snapcast -->
<g id="edge11" class="edge">
<title>api&#45;&gt;snapcast</title>
<path fill="none" stroke="#7ab896" stroke-dasharray="5,2" d="M214.06,-294.13C214.06,-294.13 214.06,-239.13 214.06,-239.13"/>
<polygon fill="#7ab896" stroke="#7ab896" points="217.56,-239.13 214.06,-229.13 210.56,-239.13 217.56,-239.13"/>
<text text-anchor="middle" x="236.62" y="-267.95" font-family="monospace" font-size="9.00" fill="#7ab896">systemctl</text>
</g>
<!-- upmpdcli -->
<g id="node13" class="node">
<title>upmpdcli</title>
<polygon fill="#152018" stroke="#2a4030" stroke-width="0.8" points="166,-227.75 96,-227.75 96,-191.75 166,-191.75 166,-227.75"/>
<text text-anchor="middle" x="131" y="-206.05" font-family="monospace" font-size="11.00" fill="#e8f0ea">upmpdcli</text>
</g>
<!-- api&#45;&gt;upmpdcli -->
<g id="edge12" class="edge">
<title>api&#45;&gt;upmpdcli</title>
<path fill="none" stroke="#7ab896" stroke-dasharray="5,2" d="M132.94,-294.13C132.94,-294.13 132.94,-239.13 132.94,-239.13"/>
<polygon fill="#7ab896" stroke="#7ab896" points="136.44,-239.13 132.94,-229.13 129.44,-239.13 136.44,-239.13"/>
<text text-anchor="middle" x="160.62" y="-267.95" font-family="monospace" font-size="9.00" fill="#7ab896">systemctl</text>
</g>
<!-- bluez_dbus&#45;&gt;pulse -->
<g id="edge18" class="edge">
<title>bluez_dbus&#45;&gt;pulse</title>
<path fill="none" stroke="#2a4030" d="M125,-89.21C125,-65.09 125,-25 125,-25 125,-25 167.94,-25 167.94,-25"/>
<polygon fill="#2a4030" stroke="#2a4030" points="167.94,-28.5 177.94,-25 167.94,-21.5 167.94,-28.5"/>
</g>
<!-- mpd&#45;&gt;mpris -->
<g id="edge20" class="edge">
<title>mpd&#45;&gt;mpris</title>
<path fill="none" stroke="#2a4030" d="M290,-192C290,-164.07 290,-113 290,-113 290,-113 490.53,-113 490.53,-113"/>
<polygon fill="#2a4030" stroke="#2a4030" points="490.53,-116.5 500.53,-113 490.53,-109.5 490.53,-116.5"/>
</g>
<!-- mpd&#45;&gt;pulse -->
<g id="edge14" class="edge">
<title>mpd&#45;&gt;pulse</title>
<path fill="none" stroke="#2a4030" d="M272.13,-209C264.57,-209 258.38,-209 258.38,-209 258.38,-209 258.38,-63.26 258.38,-63.26"/>
<polygon fill="#2a4030" stroke="#2a4030" points="261.88,-63.26 258.38,-53.26 254.88,-63.26 261.88,-63.26"/>
</g>
<!-- shairport&#45;&gt;mpris -->
<g id="edge21" class="edge">
<title>shairport&#45;&gt;mpris</title>
<path fill="none" stroke="#2a4030" d="M495.45,-209C501.88,-209 506,-209 506,-209 506,-209 506,-136.28 506,-136.28"/>
<polygon fill="#2a4030" stroke="#2a4030" points="509.5,-136.28 506,-126.28 502.5,-136.28 509.5,-136.28"/>
</g>
<!-- shairport&#45;&gt;pulse -->
<g id="edge15" class="edge">
<title>shairport&#45;&gt;pulse</title>
<path fill="none" stroke="#2a4030" d="M420,-191.9C420,-148.32 420,-40 420,-40 420,-40 274.23,-40 274.23,-40"/>
<polygon fill="#2a4030" stroke="#2a4030" points="274.23,-36.5 264.23,-40 274.23,-43.5 274.23,-36.5"/>
</g>
<!-- spotifyd&#45;&gt;mpris -->
<g id="edge22" class="edge">
<title>spotifyd&#45;&gt;mpris</title>
<path fill="none" stroke="#2a4030" d="M535,-191.85C535,-191.85 535,-136.21 535,-136.21"/>
<polygon fill="#2a4030" stroke="#2a4030" points="538.5,-136.21 535,-126.21 531.5,-136.21 538.5,-136.21"/>
</g>
<!-- spotifyd&#45;&gt;pulse -->
<g id="edge17" class="edge">
<title>spotifyd&#45;&gt;pulse</title>
<path fill="none" stroke="#2a4030" d="M570,-191.99C570,-146.26 570,-28 570,-28 570,-28 273.92,-28 273.92,-28"/>
<polygon fill="#2a4030" stroke="#2a4030" points="273.92,-24.5 263.92,-28 273.92,-31.5 273.92,-24.5"/>
</g>
<!-- snapcast&#45;&gt;pulse -->
<g id="edge16" class="edge">
<title>snapcast&#45;&gt;pulse</title>
<path fill="none" stroke="#2a4030" d="M219,-191.93C219,-191.93 219,-63.38 219,-63.38"/>
<polygon fill="#2a4030" stroke="#2a4030" points="222.5,-63.38 219,-53.38 215.5,-63.38 222.5,-63.38"/>
</g>
<!-- upmpdcli&#45;&gt;mpd -->
<g id="edge19" class="edge">
<title>upmpdcli&#45;&gt;mpd</title>
<path fill="none" stroke="#2a4030" d="M159,-191.94C159,-176.97 159,-158 159,-158 159,-158 308,-158 308,-158 308,-158 308,-180.43 308,-180.43"/>
<polygon fill="#2a4030" stroke="#2a4030" points="304.5,-180.43 308,-190.43 311.5,-180.43 304.5,-180.43"/>
</g>
</g>
</svg>
