<svg xmlns="http://www.w3.org/2000/svg" viewBox="0 0 512 512">
  <defs>
    <linearGradient id="ring-outer" x1="0" y1="0" x2="1" y2="1">
      <stop offset="0%"   stop-color="#3a8010"/>
      <stop offset="50%"  stop-color="#7ec828"/>
      <stop offset="100%" stop-color="#c8f060"/>
    </linearGradient>
    <linearGradient id="ring-mid" x1="0" y1="0" x2="1" y2="1">
      <stop offset="0%"   stop-color="#1e6020"/>
      <stop offset="100%" stop-color="#8be030"/>
    </linearGradient>
    <linearGradient id="ring-inner" x1="0" y1="0" x2="1" y2="1">
      <stop offset="0%"   stop-color="#2a7030"/>
      <stop offset="100%" stop-color="#5ab820"/>
    </linearGradient>
    <radialGradient id="cone" cx="62%" cy="68%" r="65%" gradientUnits="objectBoundingBox">
      <stop offset="0%"   stop-color="#c0f040"/>
      <stop offset="35%"  stop-color="#50a818"/>
      <stop offset="70%"  stop-color="#0a3008"/>
      <stop offset="100%" stop-color="#020c00"/>
    </radialGradient>
    <radialGradient id="dustcap" cx="62%" cy="68%" r="65%" gradientUnits="objectBoundingBox">
      <stop offset="0%"   stop-color="#60c820"/>
      <stop offset="60%"  stop-color="#1a5808"/>
      <stop offset="100%" stop-color="#040e00"/>
    </radialGradient>
    <radialGradient id="screw" cx="62%" cy="68%" r="65%" gradientUnits="objectBoundingBox">
      <stop offset="0%"   stop-color="#3a6818"/>
      <stop offset="100%" stop-color="#040c00"/>
    </radialGradient>
    <radialGradient id="highlight-rg" cx="40%" cy="35%" r="60%">
      <stop offset="0%"   stop-color="#ffffff"/>
      <stop offset="40%"  stop-color="#d8ff70"/>
      <stop offset="100%" stop-color="#90d020" stop-opacity="0"/>
    </radialGradient>
    <filter id="highlight-blur">
      <feGaussianBlur stdDeviation="0.9"/>
    </filter>
  </defs>
  <circle cx="256" cy="272" r="230" fill="#071a08"/>
  <circle cx="256" cy="264" r="200" fill="url(#ring-outer)"/>
  <circle cx="256" cy="256" r="175" fill="#081808"/>
  <circle cx="256" cy="256" r="162" fill="url(#ring-mid)"/>
  <circle cx="256" cy="256" r="138" fill="#071208"/>
  <circle cx="256" cy="256" r="126" fill="url(#ring-inner)"/>
  <circle cx="256" cy="256" r="108" fill="#061008"/>
  <circle cx="256" cy="256" r="96" fill="url(#cone)"/>
  <circle cx="256" cy="256" r="72" fill="url(#dustcap)" stroke="rgba(0,0,0,0.8)" stroke-width="8"/>
  <circle cx="278" cy="226" r="14" fill="url(#highlight-rg)" filter="url(#highlight-blur)"/>
  <circle cx="138" cy="155" r="13" fill="#040c02"/>
  <circle cx="137" cy="154" r="13" fill="url(#screw)"/>
  <line x1="131" y1="154" x2="143" y2="154" stroke="rgba(0,0,0,0.25)" stroke-width="2" stroke-linecap="round"/>
  <line x1="137" y1="148" x2="137" y2="160" stroke="rgba(0,0,0,0.25)" stroke-width="2" stroke-linecap="round"/>
  <circle cx="375" cy="155" r="13" fill="#040c02"/>
  <circle cx="374" cy="154" r="13" fill="url(#screw)"/>
  <line x1="368" y1="154" x2="380" y2="154" stroke="rgba(0,0,0,0.25)" stroke-width="2" stroke-linecap="round"/>
  <line x1="374" y1="148" x2="374" y2="160" stroke="rgba(0,0,0,0.25)" stroke-width="2" stroke-linecap="round"/>
  <circle cx="138" cy="358" r="13" fill="#040c02"/>
  <circle cx="137" cy="357" r="13" fill="url(#screw)"/>
  <line x1="131" y1="357" x2="143" y2="357" stroke="rgba(0,0,0,0.25)" stroke-width="2" stroke-linecap="round"/>
  <line x1="137" y1="351" x2="137" y2="363" stroke="rgba(0,0,0,0.25)" stroke-width="2" stroke-linecap="round"/>
  <circle cx="375" cy="358" r="13" fill="#040c02"/>
  <circle cx="374" cy="357" r="13" fill="url(#screw)"/>
  <line x1="368" y1="357" x2="380" y2="357" stroke="rgba(0,0,0,0.25)" stroke-width="2" stroke-linecap="round"/>
  <line x1="374" y1="351" x2="374" y2="363" stroke="rgba(0,0,0,0.25)" stroke-width="2" stroke-linecap="round"/>
</svg>
