<?xml version="1.0" encoding="utf-8"?>
<!-- Generator: Adobe Illustrator 20.1.0, SVG Export Plug-In . SVG Version: 6.00 Build 0)  -->
<svg version="1.1" id="icons" xmlns="http://www.w3.org/2000/svg" xmlns:xlink="http://www.w3.org/1999/xlink" x="0px" y="0px"
	 viewBox="0 0 200 200" enable-background="new 0 0 200 200" xml:space="preserve">
<g id="Layer_2_1_">
</g>
<g>
	<g>
		<path d="M178.779,158.348c12.326-16.53,19.711-36.96,19.711-59.165C198.49,44.409,154.087,0,99.306,0
			C44.531,0,0.129,44.402,0.129,99.177s44.402,99.184,99.184,99.184c22.121,0,42.481-7.333,58.978-19.576l-0.296,0.353L178.22,200
			l21.652-20.861L178.779,158.348z"/>
		<g>
			<circle fill="#FFFFFF" cx="100" cy="99.177" r="91.632"/>
			<path d="M100,25.386c-40.758,0-73.798,33.04-73.798,73.798s33.04,73.798,73.798,73.798s73.798-33.04,73.798-73.798
				S140.752,25.386,100,25.386z M100,128.207c-16.035,0-29.03-12.995-29.03-29.03s12.995-29.03,29.03-29.03
				s29.03,12.995,29.03,29.03S116.028,128.207,100,128.207z"/>
			<circle cx="100" cy="99.177" r="6.298"/>
			
				<linearGradient id="SVGID_1_" gradientUnits="userSpaceOnUse" x1="31.838" y1="1834.3317" x2="168.1491" y2="1834.3317" gradientTransform="matrix(1 0 0 1 0 -1770)">
				<stop  offset="0" style="stop-color:#000000"/>
				<stop  offset="0.5108" style="stop-color:#DFDFDF"/>
				<stop  offset="0.8763" style="stop-color:#000000"/>
			</linearGradient>
			<path fill="url(#SVGID_1_)" d="M64.711,97.68c0.784-18.811,16.279-33.824,35.283-33.824s34.499,15.013,35.283,33.824h32.873
				c-0.797-36.973-30.996-66.697-68.162-66.697S32.635,60.713,31.838,97.68H64.711z"/>
			
				<linearGradient id="SVGID_2_" gradientUnits="userSpaceOnUse" x1="97.8715" y1="1806.391" x2="151.3194" y2="1852.973" gradientTransform="matrix(1 0 0 1 0 -1770)">
				<stop  offset="0.0029" style="stop-color:#B5B5B5;stop-opacity:0"/>
				<stop  offset="0.1244" style="stop-color:#969696;stop-opacity:0.1632"/>
				<stop  offset="0.5553" style="stop-color:#2B2B2B;stop-opacity:0.7421"/>
				<stop  offset="0.7473" style="stop-color:#000000"/>
			</linearGradient>
			<path fill="url(#SVGID_2_)" d="M100,30.99v32.873c19.01,0.238,34.846,15.488,35.302,34.447h32.873
				C167.712,61.202,137.166,31.234,100,30.99z"/>
			
				<linearGradient id="SVGID_3_" gradientUnits="userSpaceOnUse" x1="-219.7734" y1="1806.3982" x2="-166.3319" y2="1852.9747" gradientTransform="matrix(-1 0 0 1 -117.6408 -1770)">
				<stop  offset="0.0029" style="stop-color:#B5B5B5;stop-opacity:0"/>
				<stop  offset="0.1244" style="stop-color:#969696;stop-opacity:0.1632"/>
				<stop  offset="0.5553" style="stop-color:#2B2B2B;stop-opacity:0.7421"/>
				<stop  offset="0.7473" style="stop-color:#000000"/>
			</linearGradient>
			<path fill="url(#SVGID_3_)" d="M100,30.99v32.873C80.99,64.1,65.174,79.351,64.717,98.31H31.838
				C32.301,61.202,62.834,31.234,100,30.99z"/>
			
				<linearGradient id="SVGID_4_" gradientUnits="userSpaceOnUse" x1="108.5358" y1="1955.6072" x2="158.5461" y2="1921.542" gradientTransform="matrix(1 0 0 1 0 -1770)">
				<stop  offset="0.0029" style="stop-color:#B5B5B5;stop-opacity:0"/>
				<stop  offset="0.0486" style="stop-color:#A8A8A8;stop-opacity:0.0514"/>
				<stop  offset="0.2682" style="stop-color:#6C6C6C;stop-opacity:0.2982"/>
				<stop  offset="0.4258" style="stop-color:#3E3E3E;stop-opacity:0.5252"/>
				<stop  offset="0.5591" style="stop-color:#1C1C1C;stop-opacity:0.725"/>
				<stop  offset="0.7208" style="stop-color:#070707;stop-opacity:0.8901"/>
				<stop  offset="0.8679" style="stop-color:#000000"/>
			</linearGradient>
			<path fill="url(#SVGID_4_)" d="M148.593,154.692c-12.982,11.375-29.981,18.284-48.599,18.284c-0.077,0-0.148-0.006-0.219-0.006
				v17.834c0.077,0,0.148,0.006,0.219,0.006c23.091,0,44.177-8.56,60.289-22.661C156.427,163.631,152.404,159.242,148.593,154.692z"
				/>
			<path fill="#FFFFFF" d="M190.578,179.312l-49.428-49.537c-1.459-1.934-3.766-3.188-6.369-3.188c-4.409,0-7.982,3.573-7.982,7.982
				c0,2.147,0.855,4.094,2.236,5.533l0,0l0,0c0.09,0.096,0.193,0.193,0.289,0.283l50.373,49.248L190.578,179.312z"/>
		</g>
	</g>
	<rect fill="none" width="200" height="200"/>
</g>
</svg>
